<svg width="250" height="70" viewBox="0 0 250 70" fill="none" xmlns="http://www.w3.org/2000/svg">
<path fill-rule="evenodd" clip-rule="evenodd" d="M29.5664 18.7832C34.2019 16.8499 39.3958 16.8499 44.0315 18.7832C44.1073 18.5024 44.2592 18.2538 44.4737 18.0421C44.8085 17.7199 45.2104 17.5634 45.6704 17.5911C53.2447 18.0098 60.0596 22.456 63.6681 29.3278C65.852 33.484 66.3833 38.4409 65.7493 43.0758C65.3026 46.3023 64.2754 49.5103 62.6901 52.3317C62.4533 52.7505 62.0648 53.0221 61.6361 53.1188C61.1493 53.2845 60.5955 53.2108 60.1579 52.8702C58.7288 51.7563 57.3801 50.5551 56.1207 49.2802C56.1877 52.8105 55.8304 56.3499 55.0622 59.7972C55.0533 59.8294 55.0444 59.8616 55.0399 59.8893C53.8654 64.1651 50.2391 67.189 46.0054 67.5665C40.2175 70.5766 33.3802 70.5766 27.5923 67.5665C23.3587 67.1936 19.7368 64.1651 18.5623 59.8893C18.5533 59.8616 18.5444 59.8294 18.5355 59.7972C17.7673 56.3499 17.4101 52.8105 17.4815 49.2802C16.2177 50.5551 14.8734 51.7563 13.4398 52.8702C13.0022 53.2108 12.4485 53.2845 11.9617 53.1188C11.5329 53.0221 11.1444 52.7505 10.9077 52.3317C9.32229 49.5103 8.2951 46.3023 7.84853 43.0758C7.21439 38.4409 7.7503 33.484 9.92971 29.3278C13.5382 22.456 20.3576 18.0098 27.9274 17.5911C28.3873 17.5634 28.7893 17.7199 29.1242 18.0421C29.3431 18.2538 29.4905 18.5024 29.5664 18.7832ZM47.2469 21.3192C47.2469 21.3421 47.2514 21.3652 47.2514 21.3882C47.7918 32.1353 52.6686 42.1783 60.7027 49.0685C63.2125 43.5223 63.6503 36.2869 60.8278 30.9111C58.0321 25.5905 52.9767 21.9774 47.238 21.0936C47.238 21.172 47.2424 21.2456 47.2469 21.3192ZM44.0805 22.456C39.5075 20.0581 34.0903 20.0581 29.5173 22.4607C28.9232 30.8006 25.9265 38.708 20.9962 45.2114C20.438 49.8095 20.6702 54.4949 21.675 59.0102C22.4744 61.8776 24.8771 63.9119 27.6996 64.2341C27.9228 64.1973 28.155 64.2111 28.3829 64.2756C28.4097 64.2756 28.4365 64.2756 28.4633 64.2756C31.1652 64.2848 33.6482 62.729 34.8629 60.2345C34.9433 60.0687 35.046 59.9215 35.1711 59.7972C35.1532 58.7846 35.1443 57.7721 35.1532 56.764C34.9656 56.8746 34.7915 57.0034 34.6307 57.1553C33.9608 57.7582 32.9381 57.6938 32.3486 57.008C31.7635 56.3176 31.8261 55.2636 32.4915 54.6562C33.675 53.579 35.1889 52.9806 36.7654 52.9531C36.7833 52.9531 36.8011 52.9531 36.8145 52.9531C36.8235 52.9531 36.8279 52.9531 36.8323 52.9531C38.4089 52.9806 39.9228 53.579 41.1062 54.6562C41.7716 55.2636 41.8387 56.3176 41.2492 57.008C40.6596 57.6938 39.637 57.7582 38.967 57.1553C38.7885 56.9896 38.592 56.8423 38.3821 56.7226C38.3776 57.7398 38.3821 58.757 38.3999 59.7696C38.5338 59.9031 38.65 60.055 38.7393 60.2345C39.9495 62.729 42.4327 64.2848 45.1345 64.2756C45.1613 64.2756 45.1881 64.2756 45.2194 64.2756C45.4427 64.2111 45.6749 64.1973 45.8982 64.2341C48.7207 63.9119 51.1234 61.8776 51.9228 59.0102C52.9276 54.4949 53.1598 49.8095 52.6015 45.2114C47.6712 38.708 44.6745 30.8006 44.0805 22.456ZM33.6437 66.1949C35.7293 66.5953 37.8685 66.5953 39.9541 66.1949C38.7349 65.4722 37.6541 64.4964 36.8011 63.3136C35.9437 64.4964 34.8629 65.4722 33.6437 66.1949ZM26.3643 21.0936C20.6211 21.9774 15.5656 25.5905 12.77 30.9111C9.94752 36.2869 10.3852 43.5223 12.895 49.0685C21.0051 42.1138 25.8954 31.9559 26.3643 21.0936ZM38.976 42.6432C40.2086 41.1289 41.995 40.213 43.9064 40.1071C45.8133 40.0012 47.698 40.7193 49.0779 42.0771C49.7165 42.7122 49.7433 43.7708 49.127 44.4336C48.5108 45.0964 47.4881 45.1194 46.845 44.4843C46.1081 43.757 45.0988 43.375 44.0805 43.4302C43.0578 43.4854 42.1067 43.9779 41.4456 44.7834C40.874 45.4876 39.8514 45.5796 39.1681 44.986C38.4893 44.3967 38.3999 43.3428 38.976 42.6432ZM24.4037 42.6432C25.6363 41.1289 27.4227 40.213 29.3342 40.1071C31.241 40.0012 33.1257 40.7193 34.5056 42.0771C35.1487 42.7122 35.1711 43.7708 34.5548 44.4336C33.9385 45.0964 32.9158 45.1194 32.2728 44.4843C31.5358 43.757 30.5266 43.375 29.5083 43.4302C28.4901 43.4854 27.5343 43.9779 26.8734 44.7834C26.3018 45.4876 25.279 45.5796 24.6002 44.986C23.9169 44.3967 23.8321 43.3428 24.4037 42.6432Z" fill="#0F637A"/>
<path d="M5.80319 15.776L6.79591 16.9092L5.13262 18.4516L7.16784 20.7749L9.25998 18.8343L10.2526 19.9676L6.94884 23.0315L0 15.0981L3.30475 12.0342L4.29746 13.1673L2.20435 15.1079L4.14 17.3179L5.80319 15.776Z" fill="#222222"/>
<path d="M9.49536 7.41908C10.8509 6.57079 12.0409 6.9689 12.9032 8.42894L13.0734 8.71571L11.7558 9.54026L11.5324 9.16221C11.1469 8.51042 10.7469 8.42143 10.3034 8.69894C9.86008 8.97645 9.75329 9.3829 10.1388 10.0347C11.2482 11.9119 14.1801 10.5589 15.7212 13.1661C16.5845 14.6262 16.3681 15.9046 14.9999 16.7609C13.6317 17.6175 12.4291 17.2269 11.5658 15.7669L11.2346 15.2063L12.5522 14.3817L12.9376 15.0335C13.3232 15.6854 13.7403 15.7454 14.1837 15.4679C14.6271 15.1904 14.7674 14.7812 14.3819 14.1294C13.2715 12.2522 10.3406 13.6052 8.7986 10.9979C7.93619 9.53788 8.13979 8.26737 9.49536 7.41908Z" fill="#222222"/>
<path d="M20.7255 2.1897L21.2484 3.61665L19.6531 4.23592L22.7922 12.7997L21.2665 13.3919L18.1274 4.82805L16.533 5.44731L16.009 4.01981L20.7255 2.1897Z" fill="#222222"/>
<path d="M28.244 0.352567C29.8521 0.0690094 30.795 0.847465 31.0746 2.53286L31.9605 7.85814C32.241 9.54299 31.604 10.5999 29.9959 10.883L27.4522 11.3313L25.7003 0.800448L28.244 0.352567ZM28.8105 9.54345L29.7163 9.3838C30.2285 9.29389 30.49 8.969 30.3651 8.21657L29.4539 2.74044C29.329 1.98857 28.977 1.77164 28.4648 1.86191L27.559 2.02165L28.8105 9.54345Z" fill="#222222"/>
<path d="M44.5041 1.54173C43.9902 1.4663 43.6272 1.7056 43.5232 2.46077L43.3657 3.59354L41.8392 3.36964L41.9821 2.34255C42.2165 0.651097 43.1721 -0.19481 44.7575 0.0379749C46.342 0.270302 47.0297 1.35742 46.7953 3.04878C46.3357 6.37119 42.9494 7.13847 42.7088 8.87501C42.6988 8.95043 42.6879 9.02586 42.6925 9.10367L45.7447 9.55155L45.5357 11.0618L40.8682 10.377L41.0483 9.07801C41.4799 5.96703 44.7502 5.92331 45.1728 2.87236C45.3049 1.92124 45.0172 1.6167 44.5041 1.54173Z" fill="#222222"/>
<path d="M54.7231 2.54044C56.2352 3.08566 56.7474 4.30549 56.1972 5.91867L54.4118 11.1616C53.8616 12.7747 52.7224 13.399 51.2102 12.8539C49.6991 12.3083 49.1868 11.0889 49.7361 9.4757L51.5224 4.23235C52.0717 2.61917 53.2119 1.99523 54.7231 2.54044ZM51.7007 11.4134C52.1912 11.5898 52.5921 11.4273 52.8373 10.7071L54.6923 5.26265C54.9376 4.5424 54.7222 4.15784 54.2326 3.98096C53.743 3.80445 53.3413 3.96694 53.0961 4.6872L51.2419 10.1316C50.9966 10.8519 51.2111 11.2364 51.7007 11.4134Z" fill="#222222"/>
<path d="M63.4148 8.38466C62.9678 8.1132 62.5434 8.19238 62.1669 8.84931L61.6013 9.83443L60.2738 9.02812L60.786 8.13464C61.6303 6.66297 62.8275 6.25651 64.2066 7.09408C65.5856 7.93164 65.8182 9.20683 64.9739 10.678C63.3161 13.5684 59.9019 12.9473 59.035 14.4586C58.9979 14.5242 58.9599 14.5898 58.9346 14.6634L61.5905 16.2762L60.8367 17.59L56.7772 15.1239L57.4252 13.994C58.9771 11.2875 62.0166 12.5315 63.5396 9.87778C64.0138 9.04993 63.8618 8.65612 63.4148 8.38466Z" fill="#222222"/>
<path d="M72.7792 13.7492L73.5981 14.5006L66.69 22.475L65.472 21.3581L70.7422 15.2749L69.8011 14.4112L70.5712 13.5229C71.5123 14.3861 72.1267 14.1119 72.7792 13.7492Z" fill="#222222"/>
<path d="M95.4588 34.8995C95.4588 35.6449 95.2877 36.3292 94.9455 36.9524C94.6034 37.5634 94.0779 38.0583 93.3692 38.4371C92.6605 38.8159 91.7806 39.0053 90.7297 39.0053H88.7868V43.6243H85.6525V30.757H90.7297C91.7562 30.757 92.6238 30.9342 93.3325 31.2886C94.0413 31.643 94.5728 32.1317 94.9272 32.7549C95.2816 33.3781 95.4588 34.093 95.4588 34.8995ZM90.4915 36.5125C91.0902 36.5125 91.5362 36.372 91.8295 36.0909C92.1228 35.8099 92.2694 35.4127 92.2694 34.8995C92.2694 34.3863 92.1228 33.9891 91.8295 33.7081C91.5362 33.427 91.0902 33.2865 90.4915 33.2865H88.7868V36.5125H90.4915Z" fill="#063643"/>
<path d="M100.591 30.757V43.6243H97.4571V30.757H100.591Z" fill="#063643"/>
<path d="M114.74 43.6243H111.606L106.364 35.6877V43.6243H103.229V30.757H106.364L111.606 38.7304V30.757H114.74V43.6243Z" fill="#063643"/>
<path d="M122.2 30.757C123.556 30.757 124.741 31.0259 125.756 31.5635C126.77 32.1012 127.552 32.8588 128.102 33.8364C128.664 34.8017 128.945 35.9198 128.945 37.1907C128.945 38.4493 128.664 39.5674 128.102 40.545C127.552 41.5226 126.764 42.2802 125.737 42.8178C124.723 43.3555 123.544 43.6243 122.2 43.6243H117.379V30.757H122.2ZM121.998 40.9116C123.183 40.9116 124.106 40.5878 124.766 39.9401C125.426 39.2925 125.756 38.376 125.756 37.1907C125.756 36.0054 125.426 35.0828 124.766 34.4229C124.106 33.7631 123.183 33.4331 121.998 33.4331H120.513V40.9116H121.998Z" fill="#063643"/>
<path d="M137.149 43.7527C135.939 43.7527 134.827 43.4716 133.813 42.9095C132.811 42.3474 132.01 41.5653 131.411 40.5633C130.825 39.5491 130.532 38.4127 130.532 37.154C130.532 35.8954 130.825 34.7651 131.411 33.7631C132.01 32.7611 132.811 31.979 133.813 31.4169C134.827 30.8548 135.939 30.5737 137.149 30.5737C138.358 30.5737 139.464 30.8548 140.466 31.4169C141.48 31.979 142.275 32.7611 142.849 33.7631C143.436 34.7651 143.729 35.8954 143.729 37.154C143.729 38.4127 143.436 39.5491 142.849 40.5633C142.263 41.5653 141.468 42.3474 140.466 42.9095C139.464 43.4716 138.358 43.7527 137.149 43.7527ZM137.149 40.8932C138.175 40.8932 138.994 40.5511 139.605 39.8668C140.228 39.1825 140.54 38.2782 140.54 37.154C140.54 36.0176 140.228 35.1133 139.605 34.4413C138.994 33.757 138.175 33.4148 137.149 33.4148C136.11 33.4148 135.279 33.7508 134.656 34.4229C134.045 35.095 133.739 36.0054 133.739 37.154C133.739 38.2905 134.045 39.2008 134.656 39.8851C135.279 40.5572 136.11 40.8932 137.149 40.8932Z" fill="#063643"/>
<path d="M152.401 43.6243L149.725 38.767H148.974V43.6243H145.839V30.757H151.1C152.114 30.757 152.975 30.9342 153.684 31.2886C154.405 31.643 154.943 32.1317 155.297 32.7549C155.652 33.3659 155.829 34.0502 155.829 34.8078C155.829 35.6632 155.584 36.427 155.096 37.099C154.619 37.7711 153.91 38.2477 152.969 38.5287L155.939 43.6243H152.401ZM148.974 36.5492H150.916C151.491 36.5492 151.918 36.4086 152.2 36.1276C152.493 35.8465 152.639 35.4494 152.639 34.9362C152.639 34.4474 152.493 34.0624 152.2 33.7814C151.918 33.5003 151.491 33.3598 150.916 33.3598H148.974V36.5492Z" fill="#063643"/>
<path d="M166.173 41.3515H161.371L160.601 43.6243H157.32L161.975 30.757H165.605L170.26 43.6243H166.943L166.173 41.3515ZM165.366 38.932L163.772 34.2213L162.195 38.932H165.366Z" fill="#063643"/>
<path d="M186.616 30.757V43.6243H183.482V35.9076L180.604 43.6243H178.074L175.178 35.8893V43.6243H172.044V30.757H175.747L179.357 39.6652L182.932 30.757H186.616Z" fill="#063643"/>
<path d="M197.247 41.3515H192.444L191.674 43.6243H188.393L193.049 30.757H196.678L201.334 43.6243H198.016L197.247 41.3515ZM196.44 38.932L194.845 34.2213L193.269 38.932H196.44Z" fill="#063643"/>
<path d="M217.175 34.8995C217.175 35.6449 217.004 36.3292 216.661 36.9524C216.319 37.5634 215.794 38.0583 215.085 38.4371C214.376 38.8159 213.497 39.0053 212.446 39.0053H210.503V43.6243H207.368V30.757H212.446C213.472 30.757 214.34 30.9342 215.048 31.2886C215.757 31.643 216.289 32.1317 216.643 32.7549C216.998 33.3781 217.175 34.093 217.175 34.8995ZM212.207 36.5125C212.806 36.5125 213.252 36.372 213.545 36.0909C213.839 35.8099 213.985 35.4127 213.985 34.8995C213.985 34.3863 213.839 33.9891 213.545 33.7081C213.252 33.427 212.806 33.2865 212.207 33.2865H210.503V36.5125H212.207Z" fill="#063643"/>
<path d="M222.307 33.2682V35.871H226.505V38.2905H222.307V41.1132H227.055V43.6243H219.173V30.757H227.055V33.2682H222.307Z" fill="#063643"/>
<path d="M238.713 30.757V33.2682H235.303V43.6243H232.169V33.2682H228.76V30.757H238.713Z" fill="#063643"/>
<path d="M245.308 43.7527C244.367 43.7527 243.524 43.5999 242.778 43.2944C242.033 42.9889 241.434 42.5368 240.982 41.938C240.542 41.3393 240.31 40.6183 240.286 39.7751H243.622C243.671 40.2517 243.835 40.6183 244.117 40.8749C244.398 41.1193 244.764 41.2415 245.216 41.2415C245.681 41.2415 246.047 41.1376 246.316 40.9299C246.585 40.71 246.719 40.4106 246.719 40.0318C246.719 39.714 246.609 39.4513 246.389 39.2436C246.182 39.0359 245.919 38.8648 245.601 38.7304C245.296 38.5959 244.856 38.4432 244.282 38.2721C243.451 38.0155 242.772 37.7589 242.247 37.5023C241.721 37.2457 241.269 36.8669 240.891 36.3659C240.512 35.8649 240.322 35.2111 240.322 34.4046C240.322 33.2071 240.756 32.2723 241.624 31.6002C242.491 30.9159 243.622 30.5737 245.015 30.5737C246.432 30.5737 247.575 30.9159 248.442 31.6002C249.31 32.2723 249.774 33.2132 249.835 34.4229H246.444C246.42 34.0075 246.267 33.6836 245.986 33.4515C245.705 33.2071 245.345 33.0849 244.905 33.0849C244.526 33.0849 244.22 33.1887 243.988 33.3965C243.756 33.592 243.64 33.8792 243.64 34.258C243.64 34.6734 243.835 34.9973 244.227 35.2294C244.618 35.4616 245.229 35.7121 246.059 35.9809C246.89 36.262 247.562 36.5308 248.076 36.7874C248.601 37.044 249.053 37.4167 249.432 37.9055C249.811 38.3943 250 39.0236 250 39.7935C250 40.5267 249.811 41.1926 249.432 41.7914C249.066 42.3902 248.528 42.8667 247.819 43.2211C247.11 43.5755 246.273 43.7527 245.308 43.7527Z" fill="#063643"/>
</svg>
